PathFileType  4	(X/Y/Z) C:\Users\antoi\Documents\MyRepositories\mobilecap\ResultsAnalysis
DataRate	CameraRate	NumFrames	NumMarkers	Units	OrigDataRate	OrigDataStartFrame	OrigNumFrames
100.0	100.0	4	55	mm	100.0	617	704
Frame#	Time	r_knee			r_shank_antsup			r_ankle			r_calc			r_5meta			r_toe			L_knee			L_shank_antsup			L_ankle			L_calc			L_5meta			L_toe			r_mknee			r_mankle			L_mknee			L_mankle			r_sh2			r_sh3			r_sh4			L_sh2			L_sh3			r_thigh1			r_thigh2			r_thigh3			r_thigh4			r_thigh5			L_thigh1			L_thigh2			L_thigh3			L_thigh4			r.ASIS			r.PSIS			L.ASIS			L.PSIS			C7			R_Shoulder			L_Shoulder			R_Sternum			L_Sternum			R_humerus			R_elbow_med			R_elbow_lat			R_forearm			R_wrist_radius			R_wrist_ulna			L_humerus			L_elbow_med			L_elbow_lat			L_forearm			L_wrist_radius			L_wrist_ulna			R_HJC			L_HJC			R_HJC_reg			L_HJC_reg			
		X1	Y1	Z1	X2	Y2	Z2	X3	Y3	Z3	X4	Y4	Z4	X5	Y5	Z5	X6	Y6	Z6	X7	Y7	Z7	X8	Y8	Z8	X9	Y9	Z9	X10	Y10	Z10	X11	Y11	Z11	X12	Y12	Z12	X13	Y13	Z13	X14	Y14	Z14	X15	Y15	Z15	X16	Y16	Z16	X17	Y17	Z17	X18	Y18	Z18	X19	Y19	Z19	X20	Y20	Z20	X21	Y21	Z21	X22	Y22	Z22	X23	Y23	Z23	X24	Y24	Z24	X25	Y25	Z25	X26	Y26	Z26	X27	Y27	Z27	X28	Y28	Z28	X29	Y29	Z29	X30	Y30	Z30	X31	Y31	Z31	X32	Y32	Z32	X33	Y33	Z33	X34	Y34	Z34	X35	Y35	Z35	X36	Y36	Z36	X37	Y37	Z37	X38	Y38	Z38	X39	Y39	Z39	X40	Y40	Z40	X41	Y41	Z41	X42	Y42	Z42	X43	Y43	Z43	X44	Y44	Z44	X45	Y45	Z45	X46	Y46	Z46	X47	Y47	Z47	X48	Y48	Z48	X49	Y49	Z49	X50	Y50	Z50	X51	Y51	Z51	X52	Y52	Z52	X53	Y53	Z53	X54	Y54	Z54	X55	Y55	Z55	

617	6.16000000	-209.60151	500.74298	-443.87127	-178.78843	457.70646	-449.38008	-261.70885	96.52293	-470.04698	-317.62027	59.25541	-523.01827	-142.56020	40.75911	-425.87576	-96.01618	60.44907	-478.04253	-204.61962	497.43765	-786.14127	-189.89149	414.89189	-797.86349	-262.09617	98.36278	-752.31951	-322.61764	57.76727	-699.10918	-145.57843	41.44805	-781.78836	-100.96382	59.00835	-728.82563	-218.63473	488.92857	-567.97435	-227.42069	108.78727	-547.38328	-205.15636	486.19760	-659.75632	-232.11071	110.97109	-672.29449	-187.38302	342.24823	-459.89433	-247.64818	459.23457	-414.09072	-256.72261	344.11414	-410.03140	-276.07434	432.32736	-809.70625	-287.49386	309.95282	-804.22613	-74.51166	783.02996	-510.04731	-84.31190	672.28769	-497.18860	-112.34771	660.51544	-435.53336	-139.84118	800.65350	-420.03059	-156.40727	687.58690	-409.66378	-115.44524	820.16135	-791.89933	-130.57647	676.74539	-801.68718	-228.47174	827.30348	-790.06943	-241.89915	688.25881	-783.97094	-78.17315	969.09000	-487.00642	-266.59168	1000.54757	-565.74596	-74.70145	956.95754	-725.77481	-266.81824	999.41404	-664.29744	-255.68371	1456.84022	-621.44616	-192.80876	1431.38940	-455.93105	-205.74152	1423.59002	-780.83916	-127.92777	1382.65924	-601.61750	-126.74370	1378.40214	-640.30731	-180.97700	1196.31216	-365.06547	-224.15205	1102.85411	-404.30326	-208.63379	1108.11776	-345.82580	-155.14991	983.36855	-300.81427	-112.95823	884.80353	-292.53112	-155.13893	881.59972	-278.28496	-205.51998	1196.25981	-873.37725	-210.98657	1090.98606	-819.13902	-226.64715	1096.24486	-876.56299	-179.76725	978.47263	-940.72568	-130.05937	882.31529	-963.95642	-170.22714	870.78201	-957.46048	-151.29953	886.29489	-521.82897	-160.79216	887.91151	-712.25692	-145.88653	892.15261	-519.20621	-146.24931	890.33759	-677.00263	
618	6.17000000	-209.58367	500.79592	-443.87364	-178.79252	457.70254	-449.40279	-261.72547	96.56623	-470.04070	-317.62144	59.24432	-523.02232	-142.55322	40.76965	-425.89662	-95.99212	60.48775	-478.03636	-204.61304	497.44403	-786.14650	-189.86231	414.94209	-797.94082	-262.09411	98.35673	-752.32139	-322.62103	57.78443	-699.11439	-145.56777	41.44522	-781.79293	-100.95880	59.03314	-728.84149	-218.62947	488.92873	-567.97292	-227.43902	108.83420	-547.39677	-205.22240	486.17307	-659.83675	-232.10784	110.97393	-672.29413	-187.36114	342.28052	-459.87423	-247.59785	459.34899	-414.09356	-256.59065	344.08197	-409.98815	-276.07454	432.32975	-809.71357	-287.47000	309.98592	-804.23676	-74.48838	783.02359	-510.09202	-84.27825	672.27705	-497.17206	-112.31098	660.55341	-435.52799	-139.82698	800.64806	-420.05572	-156.29538	687.67675	-409.58069	-115.47457	820.14174	-791.94003	-130.55607	676.75474	-801.69447	-228.43273	827.28687	-789.99596	-241.87956	688.25956	-783.98215	-78.10296	969.16389	-486.99838	-266.56520	1000.54966	-565.75693	-74.89560	956.60865	-725.83548	-266.82402	999.48971	-664.30408	-255.64441	1456.83573	-621.45416	-192.78416	1431.39238	-455.95044	-205.70034	1423.58903	-780.82084	-127.91927	1382.63846	-601.64648	-126.71381	1378.43738	-640.24512	-180.96109	1196.32539	-365.06072	-224.19382	1102.87167	-404.31456	-208.64949	1108.12948	-345.81987	-155.20341	983.34463	-300.85267	-113.04750	884.80058	-292.50877	-155.15293	881.60558	-278.26352	-205.50398	1196.26339	-873.37308	-210.98099	1090.97993	-819.14450	-226.63256	1096.23865	-876.56737	-179.74594	978.47724	-940.71935	-130.03201	882.30819	-963.93891	-170.23635	870.79257	-957.50045	-151.36825	886.35200	-521.72288	-160.98193	887.70515	-712.14684	-145.86611	891.87561	-519.23354	-146.28071	890.17778	-677.08833	
619	6.18000000	-209.59185	500.78378	-443.94923	-178.78192	457.71450	-449.40641	-261.74063	96.56317	-470.04839	-317.61726	59.22810	-523.02808	-142.57364	40.82051	-425.94028	-95.97378	60.50584	-478.03124	-204.60538	497.44349	-786.15366	-189.85083	414.96793	-798.00859	-262.08876	98.34734	-752.32656	-322.61635	57.78387	-699.09950	-145.56178	41.43574	-781.79879	-100.95737	59.04039	-728.85293	-218.62569	488.93045	-567.97396	-227.45289	108.85216	-547.42631	-205.26981	486.15171	-659.89629	-232.09780	110.97812	-672.29134	-187.35692	342.28348	-459.87935	-247.58918	459.43493	-414.09521	-256.54120	343.99499	-410.02838	-276.06510	432.32971	-809.72370	-287.45653	309.98136	-804.24969	-74.46004	783.01451	-510.10542	-84.21752	672.26809	-497.14410	-112.33147	660.45693	-435.58845	-139.79815	800.62689	-420.09907	-156.26208	687.71514	-409.52781	-115.44949	820.13553	-791.93213	-130.54251	676.75812	-801.70282	-228.39651	827.25440	-790.00516	-241.85546	688.26072	-783.99838	-78.07008	969.17128	-487.02215	-266.55042	1000.50103	-565.71807	-74.99737	956.37778	-725.88561	-266.77023	999.52180	-664.29888	-255.60296	1456.83429	-621.49280	-192.75793	1431.39023	-455.97425	-205.64314	1423.57508	-780.81758	-127.91573	1382.59808	-601.71409	-126.33832	1379.61922	-640.78359	-180.94084	1196.33608	-365.04907	-224.19604	1102.87483	-404.31249	-208.64827	1108.15372	-345.80300	-155.24121	983.36251	-300.83195	-113.13470	884.79542	-292.55256	-155.20635	881.59042	-278.26108	-205.49099	1196.26301	-873.37330	-210.97277	1090.97618	-819.13570	-226.61867	1096.22711	-876.57181	-179.72636	978.46107	-940.70770	-130.00618	882.28949	-963.90626	-170.29120	870.83060	-957.63799	-151.39143	886.34276	-521.67078	-161.08378	887.56581	-712.09178	-145.87662	891.63256	-519.34380	-146.22869	890.06429	-677.22431	
620	6.19000000	-209.55291	500.76286	-444.01392	-178.75815	457.72012	-449.38599	-261.73234	96.52740	-470.05708	-317.60662	59.22013	-523.03482	-142.59015	40.83738	-425.95717	-95.96134	60.46981	-478.02772	-204.59570	497.44119	-786.16076	-189.85330	414.95812	-798.03308	-262.08540	98.34115	-752.33185	-322.61837	57.77230	-699.11450	-145.55623	41.41486	-781.79820	-100.96389	59.02299	-728.84533	-218.61678	488.92907	-567.97271	-227.43635	108.81421	-547.42360	-205.22154	486.16514	-659.84565	-232.09031	110.97874	-672.28974	-187.34857	342.28104	-459.92325	-247.65119	459.41474	-414.11118	-256.57454	344.03329	-410.02989	-276.04933	432.31609	-809.72662	-287.46331	309.95709	-804.24407	-74.44652	783.00233	-510.10986	-84.19568	672.27046	-497.16612	-112.33416	660.35757	-435.65868	-139.75868	800.57471	-420.15581	-156.27059	687.66525	-409.61760	-115.36331	820.15225	-791.85670	-130.53887	676.75282	-801.70607	-228.38688	827.23194	-790.08860	-241.83232	688.25478	-784.01564	-78.07090	969.13824	-487.04777	-266.54397	1000.46054	-565.67922	-74.96578	956.33751	-725.90620	-266.69156	999.49796	-664.30482	-255.56343	1456.83725	-621.51552	-192.72975	1431.38453	-455.98427	-205.58095	1423.55147	-780.82884	-127.89711	1382.56816	-601.75775	-126.12091	1380.30520	-641.10148	-180.94442	1196.33668	-365.05411	-224.18645	1102.88348	-404.31337	-208.65229	1108.14839	-345.79555	-155.26726	983.38329	-300.79241	-113.20435	884.76746	-292.57879	-155.27888	881.59775	-278.24088	-205.48031	1196.25498	-873.37598	-210.96074	1090.97604	-819.12286	-226.60168	1096.22028	-876.57613	-179.71413	978.44892	-940.71020	-129.98299	882.26759	-963.88725	-170.33605	870.85537	-957.76616	-151.36711	886.30379	-521.67794	-161.05807	887.53520	-712.09893	-145.90661	891.56951	-519.43143	-146.14288	890.02863	-677.30970	
